<svg xmlns="http://www.w3.org/2000/svg" xmlns:xlink="http://www.w3.org/1999/xlink" width="32" height="28" viewBox="0 0 32 28"><defs><path id="tek7a" d="M1220 1250h-9.5v2.5l2 2v.5h-13v-.5l2-2v-2.5h-9.5a1.5 1.5 0 0 1-1.5-1.5v-20a1.5 1.5 0 0 1 1.5-1.5h28a1.5 1.5 0 0 1 1.5 1.5v20a1.5 1.5 0 0 1-1.5 1.5zm-.5-21h-27v17h27zm-16.5 7c.414 0 .79.168 1.06.439l.94.94 2.94-2.94a1.5 1.5 0 1 1 2.121 2.121l-4 4a1.496 1.496 0 0 1-2.122 0l-2-2a1.5 1.5 0 0 1 1.06-2.56z"/></defs><g><g transform="translate(-1190 -1227)"><use fill="#95e1d3" xlink:href="#tek7a"/></g></g></svg>