<!-- Generated by IcoMoon.io -->
<svg version="1.1" xmlns="http://www.w3.org/2000/svg" width="32" height="32" viewBox="0 0 32 32">
<title>instagram-2</title>
<path fill="#f38181" d="M27.938 31.754h-23.631c-2.175 0-3.938-1.763-3.938-3.938v0-23.631c0-2.175 1.763-3.938 3.938-3.938v0h23.631c2.175 0 3.938 1.763 3.938 3.938v0 23.631c0 2.175-1.763 3.938-3.938 3.938v0zM16.123 9.895c-2.441 0.001-4.546 1.436-5.52 3.507l-0.016 0.037h-0.006l-0.027 0.066c-0.042 0.090-0.095 0.22-0.144 0.353l-0.014 0.042c-0.025 0.065-0.049 0.128-0.070 0.192-0.033 0.094-0.073 0.234-0.108 0.376l-0.009 0.042c-0.017 0.066-0.037 0.13-0.052 0.197-0.025 0.112-0.051 0.266-0.072 0.422l-0.003 0.031c-0.009 0.062-0.021 0.122-0.028 0.185-0.023 0.199-0.036 0.431-0.036 0.665 0 3.372 2.733 6.105 6.105 6.105s6.105-2.733 6.105-6.105c0-0.234-0.013-0.465-0.039-0.693l0.003 0.028c-0.006-0.063-0.018-0.123-0.027-0.185-0.024-0.187-0.050-0.341-0.082-0.493l0.007 0.040c-0.015-0.066-0.034-0.13-0.052-0.197-0.044-0.184-0.084-0.324-0.129-0.462l0.012 0.044c-0.021-0.064-0.047-0.127-0.070-0.192-0.062-0.174-0.116-0.304-0.173-0.432l0.015 0.038-0.027-0.069h-0.006c-0.99-2.109-3.095-3.543-5.536-3.545h-0zM28.332 5.366c0-0.87-0.705-1.575-1.575-1.575v0h-3.151c-0.87 0-1.575 0.705-1.575 1.575v0 3.151c0 0.87 0.705 1.575 1.575 1.575h3.151c0.87 0 1.575-0.705 1.575-1.575v0zM28.332 13.44h-2.905c0.22 0.768 0.346 1.649 0.346 2.56 0 5.329-4.32 9.649-9.649 9.649-0 0-0.001 0-0.001 0h0c-0 0-0.001 0-0.001 0-5.329 0-9.649-4.32-9.649-9.649 0-0.911 0.126-1.793 0.362-2.628l-0.016 0.068h-2.905v13.194c0 0.87 0.705 1.575 1.575 1.575h21.268c0.87 0 1.575-0.705 1.575-1.575v0z"></path>
</svg>
