<!-- Generated by IcoMoon.io -->
<svg version="1.1" xmlns="http://www.w3.org/2000/svg" width="25" height="32" viewBox="0 0 25 32">
<title>pinterest-2</title>
<path fill="#f38181" d="M9.908 20.743c-0.256 1.025-0.516 2.1-0.784 3.151-0.265 1.036-0.498 2.087-0.884 3.040-0.639 1.577-1.45 3.102-2.514 4.334-0.708 0.821-0.558 0.492-0.77 0.449-0.162-0.034-0.176-0.193-0.209-0.425-0.172-1.253-0.054-2.702 0.010-4.111 0.074-1.604 0.411-2.938 0.725-4.271 0.596-2.54 1.164-5.030 1.766-7.586 0.039-0.17 0.148-0.45 0.111-0.548-0.273-0.71-0.45-1.348-0.528-2.092-0.025-0.218-0.040-0.47-0.040-0.726 0-0.592 0.077-1.167 0.222-1.713l-0.011 0.046c0.34-1.302 1.122-2.455 2.33-2.878 0.768-0.266 1.618-0.145 2.135 0.162 0.532 0.319 0.897 0.821 1.067 1.534 0.182 0.757 0.048 1.662-0.098 2.327-0.329 1.5-0.761 2.626-1.153 4.074-0.194 0.718-0.415 1.455-0.234 2.23 0.169 0.711 0.539 1.201 1.044 1.569 0.524 0.382 1.145 0.591 2 0.56 1.511-0.053 2.561-1.019 3.263-1.93 1.124-1.458 1.803-3.426 2.062-5.767 0.084-0.756 0.144-1.623 0.086-2.479-0.108-1.58-0.603-2.852-1.387-3.836-0.746-0.939-1.804-1.686-3.092-2.105-1.276-0.418-3.042-0.556-4.612-0.288-2.853 0.489-4.864 2.11-6.049 4.348-0.649 1.189-1.031 2.605-1.031 4.11 0 0.030 0 0.061 0 0.091l-0-0.005c0 1.292 0.32 2.295 0.834 3.077 0.164 0.247 0.404 0.452 0.564 0.735 0.228 0.401-0.034 0.998-0.148 1.433-0.135 0.523-0.148 1.246-0.759 1.258-0.254 0.005-0.571-0.18-0.785-0.299-1.606-0.887-2.581-2.502-2.981-4.596-0.116-0.599-0.182-1.288-0.182-1.993s0.066-1.393 0.193-2.061l-0.011 0.069c0.234-1.19 0.67-2.287 1.153-3.177 1.013-1.837 2.459-3.323 4.204-4.356l0.053-0.029c1.374-0.812 2.923-1.382 4.809-1.657 0.568-0.080 1.25-0.138 1.942-0.162l0.034-0.001c0.16-0.008 0.348-0.012 0.537-0.012 1.733 0 3.379 0.372 4.863 1.039l-0.075-0.030c1.44 0.644 2.66 1.536 3.66 2.633l0.008 0.009c1.031 1.126 1.782 2.437 2.257 4.073 0.249 0.852 0.49 1.762 0.49 2.815 0 1.056-0.223 1.985-0.379 2.914-0.583 3.481-2.239 6.327-4.724 7.948-0.621 0.411-1.337 0.75-2.101 0.981l-0.058 0.015c-0.821 0.239-1.758 0.418-2.761 0.348-0.904-0.053-1.737-0.31-2.469-0.725l0.028 0.015c-0.665-0.375-1.223-0.836-1.62-1.531z"></path>
</svg>
