<!-- Generated by IcoMoon.io -->
<svg version="1.1" xmlns="http://www.w3.org/2000/svg" width="38" height="32" viewBox="0 0 38 32">
<title>twitter-3</title>
<path fill="#f38181" d="M25.473 0.874c2.959-0.052 4.534 1.025 6.036 2.396 1.279-0.109 2.938-0.822 3.916-1.319l0.95-0.519c-0.559 1.508-1.315 2.691-2.479 3.587-0.259 0.198-0.515 0.467-0.839 0.593v0.019c1.658-0.016 3.025-0.765 4.324-1.171v0.019c-0.682 1.084-1.606 2.185-2.591 2.973l-1.193 0.947c0.022 1.756-0.026 3.431-0.355 4.906-1.907 8.575-6.963 14.396-14.964 16.89-2.874 0.895-7.517 1.263-10.81 0.445-1.632-0.404-3.107-0.863-4.49-1.466-0.85-0.37-1.561-0.744-2.241-1.161l0.078 0.044-0.671-0.407c0.742 0.022 1.612 0.227 2.441 0.092 0.752-0.121 1.488-0.089 2.182-0.24 1.728-0.38 3.263-0.881 4.583-1.655 0.641-0.374 1.615-0.815 2.070-1.356-0.858 0.015-1.636-0.185-2.273-0.409-2.473-0.873-3.91-2.477-4.847-4.887 0.749 0.083 2.906 0.276 3.411-0.148-0.943-0.052-1.849-0.598-2.497-1.004-1.988-1.244-3.609-3.329-3.597-6.54l0.783 0.371c0.5 0.211 1.008 0.323 1.603 0.447 0.252 0.052 0.756 0.199 1.044 0.092h-0.038c-0.384-0.447-1.011-0.745-1.396-1.226-1.277-1.585-2.473-4.023-1.716-6.929 0.212-0.757 0.492-1.418 0.843-2.032l-0.023 0.043 0.038 0.017c0.148 0.311 0.48 0.54 0.689 0.8 0.652 0.807 1.455 1.533 2.273 2.173 2.79 2.182 5.302 3.523 9.338 4.515 1.023 0.253 2.205 0.445 3.428 0.447-0.343-0.999-0.233-2.618 0.036-3.585 0.681-2.435 2.157-4.189 4.324-5.127 0.481-0.208 1.048-0.388 1.636-0.512l0.060-0.011 0.931-0.111z"></path>
</svg>
