<svg xmlns="http://www.w3.org/2000/svg" xmlns:xlink="http://www.w3.org/1999/xlink" width="32" height="31" viewBox="0 0 32 31"><defs><path id="qwxba" d="M420.74 1236.503a15.719 15.719 0 0 0-8.243-8.243c1-.787 2.258-1.26 3.629-1.26a5.874 5.874 0 0 1 5.874 5.874 5.846 5.846 0 0 1-1.26 3.629zm-.24 6.497c0 3.852-1.512 7.343-3.963 9.94l2.029 2.028a1.483 1.483 0 0 1-2.097 2.097l-2.18-2.178A14.419 14.419 0 0 1 406 1257.5a14.42 14.42 0 0 1-8.276-2.603l-2.163 2.163a1.5 1.5 0 1 1-2.121-2.121l2.011-2.012c-2.443-2.595-3.951-6.082-3.951-9.927 0-8.008 6.492-14.5 14.5-14.5s14.5 6.492 14.5 14.5zm-14.5-11.5c-6.351 0-11.5 5.148-11.5 11.5 0 6.351 5.149 11.5 11.5 11.5s11.5-5.149 11.5-11.5c0-6.352-5.149-11.5-11.5-11.5zm6 13h-6a1.5 1.5 0 0 1-1.5-1.5v-8a1.5 1.5 0 0 1 3 0v6.5h4.5a1.5 1.5 0 0 1 0 3zm-20.713-7.795A5.967 5.967 0 0 1 390 1233a6 6 0 0 1 6-6c1.4 0 2.685.483 3.706 1.287a16.056 16.056 0 0 0-8.419 8.418z"/></defs><use fill="#95e1d3" xlink:href="#qwxba" transform="translate(-390 -1227)"/></svg>