<svg xmlns="http://www.w3.org/2000/svg" width="32" height="32" viewBox="0 0 32 32"><path fill="#f38181" d="M27.938 31.754H4.307a3.938 3.938 0 0 1-3.938-3.938V4.185A3.938 3.938 0 0 1 4.307.247h23.631a3.938 3.938 0 0 1 3.938 3.938v23.631a3.938 3.938 0 0 1-3.938 3.938zM16.123 9.895a6.1 6.1 0 0 0-5.52 3.507l-.016.037h-.006l-.027.066c-.042.09-.095.22-.144.353l-.014.042a4.076 4.076 0 0 0-.178.568l-.009.042c-.017.066-.037.13-.052.197a5.358 5.358 0 0 0-.072.422l-.003.031c-.009.062-.021.122-.028.185a6.105 6.105 0 1 0 12.135-.028l.003.028c-.006-.063-.018-.123-.027-.185a6.094 6.094 0 0 0-.082-.493l.007.04c-.015-.066-.034-.13-.052-.197a5.727 5.727 0 0 0-.129-.462l.012.044c-.021-.064-.047-.127-.07-.192a5.766 5.766 0 0 0-.173-.432l.015.038-.027-.069h-.006c-.99-2.109-3.095-3.543-5.536-3.545zm12.209-4.529c0-.87-.705-1.575-1.575-1.575h-3.151c-.87 0-1.575.705-1.575 1.575v3.151c0 .87.705 1.575 1.575 1.575h3.151c.87 0 1.575-.705 1.575-1.575zm0 8.074h-2.905c.22.768.346 1.649.346 2.56a9.649 9.649 0 0 1-9.649 9.649h-.002A9.649 9.649 0 0 1 6.473 16c0-.911.126-1.793.362-2.628l-.016.068H3.914v13.194c0 .87.705 1.575 1.575 1.575h21.268c.87 0 1.575-.705 1.575-1.575z"/></svg>