<svg xmlns="http://www.w3.org/2000/svg" width="25" height="32" viewBox="0 0 25 32"><path fill="#f38181" d="M9.908 20.743c-.256 1.025-.516 2.1-.784 3.151-.265 1.036-.498 2.087-.884 3.04-.639 1.577-1.45 3.102-2.514 4.334-.708.821-.558.492-.77.449-.162-.034-.176-.193-.209-.425-.172-1.253-.054-2.702.01-4.111.074-1.604.411-2.938.725-4.271.596-2.54 1.164-5.03 1.766-7.586.039-.17.148-.45.111-.548-.273-.71-.45-1.348-.528-2.092a6.67 6.67 0 0 1 .182-2.439l-.011.046c.34-1.302 1.122-2.455 2.33-2.878.768-.266 1.618-.145 2.135.162.532.319.897.821 1.067 1.534.182.757.048 1.662-.098 2.327-.329 1.5-.761 2.626-1.153 4.074-.194.718-.415 1.455-.234 2.23a2.605 2.605 0 0 0 1.044 1.569c.524.382 1.145.591 2 .56 1.511-.053 2.561-1.019 3.263-1.93 1.124-1.458 1.803-3.426 2.062-5.767.084-.756.144-1.623.086-2.479-.108-1.58-.603-2.852-1.387-3.836-.746-.939-1.804-1.686-3.092-2.105-1.276-.418-3.042-.556-4.612-.288-2.853.489-4.864 2.11-6.049 4.348a8.6 8.6 0 0 0-1.031 4.11v.091-.005c0 1.292.32 2.295.834 3.077.164.247.404.452.564.735.228.401-.034.998-.148 1.433-.135.523-.148 1.246-.759 1.258-.254.005-.571-.18-.785-.299C1.433 17.325.458 15.71.058 13.616c-.116-.599-.182-1.288-.182-1.993s.066-1.393.193-2.061l-.011.069a11.36 11.36 0 0 1 1.153-3.177 11.461 11.461 0 0 1 4.204-4.356l.053-.029C6.842 1.257 8.391.687 10.277.412c.568-.08 1.25-.138 1.942-.162l.034-.001a11.833 11.833 0 0 1 5.4 1.027l-.075-.03c1.44.644 2.66 1.536 3.66 2.633l.008.009c1.031 1.126 1.782 2.437 2.257 4.073.249.852.49 1.762.49 2.815 0 1.056-.223 1.985-.379 2.914-.583 3.481-2.239 6.327-4.724 7.948a8.055 8.055 0 0 1-2.101.981l-.058.015c-.821.239-1.758.418-2.761.348a5.649 5.649 0 0 1-2.469-.725l.028.015c-.665-.375-1.223-.836-1.62-1.531z"/></svg>