<svg xmlns="http://www.w3.org/2000/svg" xmlns:xlink="http://www.w3.org/1999/xlink" width="18" height="15" viewBox="0 0 18 15"><defs><path id="m1cra" d="M1501.726 40.663h.001l-2.475 5.5a.824.824 0 0 1-.697.485l-7.128.475.412 1.176h7.761a1.65 1.65 0 1 1-1.65 1.65h-7.7a1.65 1.65 0 1 1-1.65-1.65h1.49l-3.175-9.074h-1.89a.825.825 0 0 1 0-1.65h2.475c.36 0 .663.232.776.553h.003l.48 1.372h12.216a.825.825 0 0 1 .751 1.163zm-12.39.487l1.526 4.357 7.089-.473 1.748-3.884z"/></defs><use fill="#fff" xlink:href="#m1cra" transform="translate(-1484 -37)"/></svg>