<svg xmlns="http://www.w3.org/2000/svg" width="38" height="32" viewBox="0 0 38 32"><path fill="#f38181" d="M25.473.874c2.959-.052 4.534 1.025 6.036 2.396 1.279-.109 2.938-.822 3.916-1.319l.95-.519c-.559 1.508-1.315 2.691-2.479 3.587-.259.198-.515.467-.839.593v.019c1.658-.016 3.025-.765 4.324-1.171v.019c-.682 1.084-1.606 2.185-2.591 2.973l-1.193.947c.022 1.756-.026 3.431-.355 4.906-1.907 8.575-6.963 14.396-14.964 16.89-2.874.895-7.517 1.263-10.81.445-1.632-.404-3.107-.863-4.49-1.466a17.7 17.7 0 0 1-2.241-1.161l.078.044-.671-.407c.742.022 1.612.227 2.441.092.752-.121 1.488-.089 2.182-.24 1.728-.38 3.263-.881 4.583-1.655.641-.374 1.615-.815 2.07-1.356-.858.015-1.636-.185-2.273-.409-2.473-.873-3.91-2.477-4.847-4.887.749.083 2.906.276 3.411-.148-.943-.052-1.849-.598-2.497-1.004-1.988-1.244-3.609-3.329-3.597-6.54l.783.371c.5.211 1.008.323 1.603.447.252.052.756.199 1.044.092h-.038c-.384-.447-1.011-.745-1.396-1.226C2.336 9.602 1.14 7.164 1.897 4.258a8.834 8.834 0 0 1 .843-2.032l-.023.043.038.017c.148.311.48.54.689.8.652.807 1.455 1.533 2.273 2.173 2.79 2.182 5.302 3.523 9.338 4.515 1.023.253 2.205.445 3.428.447-.343-.999-.233-2.618.036-3.585.681-2.435 2.157-4.189 4.324-5.127a8.747 8.747 0 0 1 1.636-.512l.06-.011.931-.111z"/></svg>