<svg xmlns="http://www.w3.org/2000/svg" xmlns:xlink="http://www.w3.org/1999/xlink" width="32" height="32" viewBox="0 0 32 32"><defs><path id="u561a" d="M422.065 1421.89l-14.471 5.987a1.496 1.496 0 0 1-1.188 0l-14.47-5.988a1.5 1.5 0 0 1-.936-1.39v-23a1.5 1.5 0 0 1 2.073-1.385l.003.001.013.005 13.911 5.756 13.91-5.756.014-.005.003-.001A1.5 1.5 0 0 1 423 1397.5v23a1.5 1.5 0 0 1-.935 1.39zm-16.565-17.387l-11.5-4.76v19.754l11.5 4.759zm14.5-4.76l-11.5 4.76v19.753l11.5-4.76zm-9.12 6.891l5.5-2.5a1.5 1.5 0 0 1 1.241 2.731l-5.5 2.5a1.5 1.5 0 0 1-1.241-2.731zm0 5.5l5.5-2.5a1.499 1.499 0 0 1 2.12 1.365 1.5 1.5 0 0 1-.88 1.366l-5.5 2.5a1.5 1.5 0 0 1-1.241-2.73zm0 5.5l5.5-2.5a1.5 1.5 0 0 1 1.241 2.731l-5.5 2.5a1.5 1.5 0 0 1-1.241-2.731zM397 1404c.221 0 .431.048.62.134l5.5 2.5a1.5 1.5 0 0 1-1.24 2.731l-5.5-2.5A1.5 1.5 0 0 1 397 1404zm0 5.5c.221 0 .431.048.62.134l5.5 2.5a1.5 1.5 0 1 1-1.24 2.73v.001l-5.5-2.5a1.5 1.5 0 0 1 .62-2.865zm0 5.5c.221 0 .431.048.62.134l5.5 2.5a1.5 1.5 0 0 1-1.24 2.731l-5.5-2.5A1.5 1.5 0 0 1 397 1415z"/></defs><g><g transform="translate(-391 -1396)"><use fill="#95e1d3" xlink:href="#u561a"/></g></g></svg>