<svg xmlns="http://www.w3.org/2000/svg" xmlns:xlink="http://www.w3.org/1999/xlink" width="32" height="31" viewBox="0 0 32 31"><defs><path id="672za" d="M822 1412.5a1.5 1.5 0 0 1-1.5 1.5 1.49 1.49 0 0 1-1.02-.406l-.003.004-13.439-13.439-.038-.037-13.446 13.446a1.5 1.5 0 1 1-2.092-2.15l14.457-14.458c.273-.283.656-.46 1.08-.46h.002c.026 0 .052 0 .079.002h.012a1.97 1.97 0 0 1 .072.007c.367.04.694.212.933.468l5.903 5.901v-1.378a1.5 1.5 0 1 1 3 0v4.378l5.598 5.598-.004.004c.25.268.406.625.406 1.02zm-3 2.5v10.5a1.5 1.5 0 0 1-1.5 1.5h-3v-12h-6v12h-14a1.5 1.5 0 0 1-1.5-1.5V1415l13-13zm-15.5 0h-6v6h6z"/></defs><g><g transform="translate(-790 -1396)"><use fill="#95e1d3" xlink:href="#672za"/></g></g></svg>