<svg xmlns="http://www.w3.org/2000/svg" xmlns:xlink="http://www.w3.org/1999/xlink" width="32" height="32" viewBox="0 0 32 32"><defs><path id="cloda" d="M821.5 1258h-29a1.5 1.5 0 0 1-1.5-1.5v-29a1.5 1.5 0 0 1 1.5-1.5h29a1.5 1.5 0 0 1 1.5 1.5v29a1.5 1.5 0 0 1-1.5 1.5zm-1.5-29h-26v26h26zm-23.785 13.238l4-2.5a1.491 1.491 0 0 1 1.625.036l.006-.008 6.63 4.42 7.639-5.391a1.5 1.5 0 0 1 1.764 2.426l-8.5 6a1.493 1.493 0 0 1-1.74.012l-6.657-4.438-3.135 1.96a1.5 1.5 0 0 1-1.631-2.516z"/></defs><g><g transform="translate(-791 -1226)"><use fill="#95e1d3" xlink:href="#cloda"/></g></g></svg>